:SAMPLES-PER-SECOND 30
:FULLY-SPECIFIED
:DEGREES
467
root  58.3495 37.2931 1.01987 -54.7529 -86.785 51.758
RightUpLeg  -23.6017 -5.03331 0.966456
RightLeg  14.1819 -0.332634 0.119807
RightFoot  5.79443 0.0814216 -0.359584
RightToes  -1.74624e-010 0 -3.6325e-017
Spine  6.49714 -2.30384 0.373698
Spine1  5.72865 -2.73441 1.27223
HEad  -8.5859 -7.67244 -4.19905
LeftShoulder1  -0.36964 4.4541 -32.7618
LeftArm  13.2708 -10.2166 -46.1673
LeftForeArm  16.9471 -25.9414 -4.66172
LeftHand  0.0545407 7.02697 5.5338
RightShoulder  -1.26128 -6.80974 31.6424
RightArm  13.3424 -7.73028 38.3022
RightForeArm  18.5576 4.86463 6.52226
RightHand  -0.104687 5.83933 -1.3657
LeftUpLeg  17.9632 13.0417 -0.545693
LeftLeg  15.9653 -9.57027 -3.595
LeftFoot  -21.5984 0.244703 1.31737
LeftToes  -3.96543e-010 8.93632e-011 -2.58531e-011
468
root  56.7982 37.1965 1.07056 -23.6064 -88.752 20.6433
RightUpLeg  -24.3052 -4.23778 3.39393
RightLeg  20.0652 0.444365 -0.0630833
RightFoot  3.63663 0.334187 -2.35924
RightToes  -1.74624e-010 0 -3.6325e-017
Spine  5.80697 -2.23206 5.02769
Spine1  6.00295 -2.04343 0.0177272
HEad  -8.66444 -7.89236 -4.88678
LeftShoulder1  -0.421589 4.5767 -33.161
LeftArm  13.7228 -6.93243 -45.8984
LeftForeArm  19.4154 -27.0358 -4.77318
LeftHand  -0.0465173 4.61578 3.0408
RightShoulder  -1.22206 -6.68756 31.8554
RightArm  12.738 -6.61568 38.6311
RightForeArm  19.6204 4.47037 6.30827
RightHand  -0.00769941 2.14125 -0.312229
LeftUpLeg  17.6873 14.0887 2.55666
LeftLeg  21.6704 -11.3206 -4.477
LeftFoot  -20.4348 -0.0550685 -2.32422
LeftToes  -3.96543e-010 8.93632e-011 -2.58531e-011
469
root  55.375 37.1728 1.05488 47.1317 -89.0194 -49.8905
RightUpLeg  -24.0023 -3.88672 4.89542
RightLeg  23.5659 0.410184 -0.0331053
RightFoot  1.18904 0.418349 -3.72188
RightToes  -1.74624e-010 0 -3.6325e-017
Spine  5.90955 -2.021 8.00209
Spine1  5.13791 -1.3809 -0.127504
HEad  -7.6753 -8.25882 -5.03524
LeftShoulder1  -0.380472 4.47039 -33.2187
LeftArm  14.6335 -2.81299 -45.8118
LeftForeArm  18.7473 -27.1024 -4.82461
LeftHand  -0.0131407 5.66439 4.82347
RightShoulder  -1.1889 -6.59671 31.9003
RightArm  12.1802 -5.75963 39.2572
RightForeArm  18.9399 4.45227 6.17379
RightHand  -0.0293842 2.84504 -0.647538
LeftUpLeg  14.6262 12.1471 3.79538
LeftLeg  30.3327 -10.0399 -5.97275
LeftFoot  -15.5803 -0.157094 -7.25418
LeftToes  -3.96543e-010 8.93632e-011 -2.58531e-011
470
root  54.0392 37.229 0.953938 68.2552 -87.8737 -70.896
RightUpLeg  -22.8257 -4.07078 6.12621
RightLeg  25.5719 0.239907 -0.111356
RightFoot  -1.61054 0.343515 -4.1524
RightToes  -1.74624e-010 0 -3.6325e-017
Spine  5.99467 -1.88257 9.62204
Spine1  4.80976 -1.0476 0.602111
HEad  -7.34297 -8.78181 -5.00342
LeftShoulder1  -0.471677 4.70079 -33.269
LeftArm  15.9262 0.498267 -45.8339
LeftForeArm  17.9744 -26.46 -4.7243
LeftHand  0.0152856 6.3265 4.95183
RightShoulder  -1.14487 -6.4899 31.794
RightArm  11.8787 -4.34842 40.5562
RightForeArm  18.7685 5.31438 6.15268
RightHand  0.0116838 3.4758 -0.0585881
LeftUpLeg  9.55186 10.2277 5.04182
LeftLeg  40.7836 -8.39424 -7.2815
LeftFoot  -5.41201 0.539827 -10.115
LeftToes  -3.96543e-010 8.93632e-011 -2.58531e-011
471
root  52.8182 37.2924 0.886977 51.7125 -86.2959 -54.041
RightUpLeg  -21.6212 -5.20551 7.16063
RightLeg  26.805 0.00880163 -0.241381
RightFoot  -4.23703 0.233732 -4.20974
RightToes  -1.74624e-010 0 -3.6325e-017
Spine  5.11369 -1.92925 11.4096
Spine1  5.82734 -0.928565 1.10337
HEad  -7.3342 -9.79011 -4.47809
LeftShoulder1  -0.473774 4.69313 -33.6296
LeftArm  18.2574 2.29091 -45.765
LeftForeArm  18.9913 -25.0956 -4.35361
LeftHand  -0.0353807 5.04185 2.2324
RightShoulder  -1.16631 -6.54054 31.8563
RightArm  11.8246 -1.67876 42.0303
RightForeArm  17.0526 6.06443 6.32858
RightHand  -0.122994 3.66085 -1.85118
LeftUpLeg  2.72301 7.12119 5.73005
LeftLeg  51.2683 -5.74475 -7.19472
LeftFoot  6.67873 1.50918 -9.84258
LeftToes  -3.96543e-010 8.93632e-011 -2.58531e-011
472
root  51.5701 37.4792 0.796095 55.5155 -86.2588 -57.8339
RightUpLeg  -19.3634 -4.92443 7.325
RightLeg  26.7549 -0.171361 -0.307409
RightFoot  -6.38848 0.130623 -4.02283
RightToes  -1.74624e-010 0 -3.6325e-017
Spine  5.44418 -1.45283 12.5076
Spine1  5.5371 -0.127643 0.622724
HEad  -6.9374 -10.7966 -3.87973
LeftShoulder1  -0.585096 4.95181 -34.2349
LeftArm  20.1819 4.1347 -44.7314
LeftForeArm  18.8012 -23.7392 -4.17569
LeftHand  -0.0277222 5.38833 0.763294
RightShoulder  -1.04918 -6.26349 31.4572
RightArm  12.6568 0.71113 43.6679
RightForeArm  16.2806 7.85277 6.68525
RightHand  -0.125345 3.14324 -1.94617
LeftUpLeg  -2.4668 5.99407 5.79464
LeftLeg  58.1319 -3.99105 -6.41999
LeftFoot  11.3396 1.59158 -8.18848
LeftToes  -3.96543e-010 8.93632e-011 -2.58531e-011
473
root  50.2124 37.8985 0.699381 49.5987 -86.8959 -52.3721
RightUpLeg  -15.2989 -5.48796 6.45057
RightLeg  24.5698 0.300242 0.112086
RightFoot  -7.7428 0.0719319 -3.95007
RightToes  -1.74624e-010 0 -3.6325e-017
Spine  5.02118 -0.747933 12.3941
Spine1  6.09553 0.711619 -0.380967
HEad  -7.14567 -12.0414 -3.62569
LeftShoulder1  -0.413086 4.53133 -34.0432
LeftArm  19.3255 5.8934 -44.2275
LeftForeArm  19.4746 -21.2696 -4.67481
LeftHand  -0.0279243 5.58377 1.08875
RightShoulder  -1.07065 -6.32769 31.3523
RightArm  14.8495 3.50772 45.1942
RightForeArm  14.804 10.2516 6.96251
RightHand  -0.146099 4.35325 -2.01962
LeftUpLeg  -6.43315 5.0502 5.23163
LeftLeg  61.7335 -3.18115 -5.82131
LeftFoot  7.84927 0.922842 -5.76372
LeftToes  -3.96543e-010 8.93632e-011 -2.58531e-011
474
root  48.9804 38.1629 0.612233 43.4655 -87.5937 -46.1528
RightUpLeg  -12.3996 -5.83251 5.54993
RightLeg  23.0292 0.880363 0.584973
RightFoot  -9.20494 0.00847228 -3.78423
RightToes  -1.74624e-010 0 -3.6325e-017
Spine  5.53742 -0.253252 12.8783
Spine1  4.95011 1.59453 -1.99385
HEad  -6.15923 -12.5641 -3.12835
LeftShoulder1  -0.484156 4.70617 -34.0996
LeftArm  14.314 7.68284 -42.9972
LeftForeArm  24.2304 -18.1106 -6.34209
LeftHand  -0.0285413 6.00125 0.551656
RightShoulder  -1.03343 -6.25495 30.9972
RightArm  19.5115 5.65328 46.6207
RightForeArm  11.7465 13.6059 6.82596
RightHand  -0.185632 4.38676 -2.49089
LeftUpLeg  -11.184 4.15057 4.41839
LeftLeg  63.1063 -2.55591 -4.8792
LeftFoot  6.47618 0.595982 -4.05577
LeftToes  -3.96543e-010 8.93632e-011 -2.58531e-011
